<svg xmlns="http://www.w3.org/2000/svg" xmlns:xlink="http://www.w3.org/1999/xlink" viewBox="0 0 611.69 179.05"><defs><style>.cls-1{fill:url(#未命名的渐变_202);}.cls-2{fill:#bd8e56;}.cls-3{fill:#c3a87a;}.cls-4{fill:#222323;}.cls-5{fill:#326d35;}.cls-6{font-size:12px;fill:#231815;font-family:MicrosoftYaHeiLight, Microsoft YaHei;}</style><linearGradient id="未命名的渐变_202" x1="0.25" y1="78.39" x2="213.45" y2="78.39" gradientUnits="userSpaceOnUse"><stop offset="0" stop-color="#b6854e"/><stop offset="0.99" stop-color="#d0aa7d"/></linearGradient></defs><title>登录LOGO资源 1</title><g id="图层_2" data-name="图层 2"><g id="图层_1-2" data-name="图层 1"><path class="cls-1" d="M172.84,66.7a45,45,0,0,1-4.41,89.83h-.17l-44.84-44.84c0-.06,0-.11,0-.17v-.09L109.93,97.93,89.81,118.05c0,.11,0,.24,0,.36L52.18,156a45,45,0,0,1-28.5-84A45,45,0,0,1,67,14.74a44.74,44.74,0,0,1,26.79,8.84A45,45,0,0,1,172.84,66.7Zm-65.5,15.44,0,0-.27-.17Z" transform="translate(-0.25 -0.25)"/><path class="cls-2" d="M123.41,147.22V179.3h-6.75V136.86l-12.42-1v2.44a9.32,9.32,0,0,0-6.7,8.95V179.3H90.29V147.22h0c0-.35,0-.69,0-1a16.56,16.56,0,0,1,33.12,0c0,.35,0,.69,0,1Z" transform="translate(-0.25 -0.25)"/><path class="cls-2" d="M116.66,136.86V179.3l-.5-.29V147.22a9.32,9.32,0,0,0-11.92-8.95v-2.44Z" transform="translate(-0.25 -0.25)"/><polygon class="cls-2" points="116.41 179.05 115.91 179.05 115.91 178.76 116.41 179.05"/><path class="cls-3" d="M116.16,147.22V179l-11.92-7V138.27a9.32,9.32,0,0,1,11.92,8.95Z" transform="translate(-0.25 -0.25)"/><path class="cls-4" d="M290.33,101.28h5.88c.51,0,.77.24.77.72v3.83c0,.64-.26.88-.77.72h-2.56a20.47,20.47,0,0,0-3.58-.24v2.16a14.36,14.36,0,0,0,5.88,5,3,3,0,0,1,1.28,1.68q-1.78,2.16-2,2.4c-.51,1.11-.94,1.59-1.28,1.43-.68,0-2.05-1-4.09-3.11v14.86a15.9,15.9,0,0,0,.25,5c0,.8-.42,1.2-1.28,1.2h-1a5.55,5.55,0,0,0-2.3,0,5.17,5.17,0,0,1-1,.24c-1.2,0-1.71-.4-1.54-1.2v-1.68a37.2,37.2,0,0,0,.26-4.79c.17-3.36.34-6.79.51-10.31-2.39,3.52-4.6,5.28-6.65,5.28-2.22.16-3.92-1.12-5.12-3.84q8.44-2.16,11.77-14.38a44.15,44.15,0,0,0-4.6.24,4.4,4.4,0,0,0-1.28.24c-.69.32-1.11.4-1.28.24-.17,0-.26-.08-.26-.24a.67.67,0,0,1-.51-1,7,7,0,0,1,.77-4.55,4.62,4.62,0,0,1,1.79-.24,3,3,0,0,1,1.28.24h4.6v-2.4a14.66,14.66,0,0,1,.26-3.11,9.79,9.79,0,0,0-.52-2.4,4.13,4.13,0,0,1-.25-2.4c0-.63.42-1,1.28-1.2a4.83,4.83,0,0,1,1.28.24,2.36,2.36,0,0,0,1.53,0c.17.17.42.09.77-.24,1.7,0,2.47.88,2.3,2.64q0,1.44-.51,1.44Zm15.34,31.63V131a29.15,29.15,0,0,0,5.37.48q3.84.24,3.84-3.36V106.55h-1.53a56.77,56.77,0,0,0-9.72.72,8,8,0,0,0-1.79.24,3.25,3.25,0,0,1-1.79,0c-.86.16-1.28-.16-1.28-1a2.71,2.71,0,0,1,0-1.68,6.56,6.56,0,0,0,.25-1.67,2,2,0,0,1,1-1.68,10,10,0,0,1,2.3-.24,8.23,8.23,0,0,1,2.3.24c1.19,0,3.07.08,5.63.24h4.6V95.29a7.23,7.23,0,0,0-.51-2.16V91c0-.79.42-1.2,1.28-1.2.17,0,.68.09,1.53.24a6.49,6.49,0,0,0,2.56,0,.71.71,0,0,0,.51.24c1.19-.15,1.79.4,1.79,1.68a4,4,0,0,1-.51,1.68c-.34,1.28-.43,4-.26,8.15h7.93a9.79,9.79,0,0,0,4.09-.72,4.3,4.3,0,0,1,.26,1.44c-.86,3.19-2.13,5-3.84,5.51h-.25q-1.29,0-3.84-.24-3.08-.48-4.35-.72v25.16q-.25,4.8-8.95,5A6.23,6.23,0,0,1,305.67,132.91Z" transform="translate(-0.25 -0.25)"/><path class="cls-4" d="M395.83,135.79h-.51q-8.19-.24-12.54,0-4.86.24-8.95.72H372a6.15,6.15,0,0,1-1.79.48c-.85-.16-1.28-.56-1.28-1.2q-.25-.72,0-1a4.3,4.3,0,0,0,.26-1.44,2.22,2.22,0,0,1,.77-1.67,19.75,19.75,0,0,1,3.07-.24,11.28,11.28,0,0,0,1.79.24h18.41v-3.84h-4.86c-4.43,0-7.76.08-10,.24a7.1,7.1,0,0,1-2.05.24h-1.28q-1.78.24-1.53-1V126a9.5,9.5,0,0,0,.25-1.91c0-.48.34-1,1-1.44a18.27,18.27,0,0,1,2.81-.24,7.38,7.38,0,0,1,1.53.24h13.56v-2.16q-.25-1,1-1.2a4.83,4.83,0,0,1,1.28.24,2.5,2.5,0,0,0,1.53,0h.77c1.54-.15,2.3.4,2.3,1.68a.94.94,0,0,1-.25.72q-.26.48,0,.72h17.64c1.19,0,1.79.24,1.79.72a.69.69,0,0,1,.26.48,3.77,3.77,0,0,1-.26,1.2c-.17.47-.17.8,0,.95v.48a1.85,1.85,0,0,1,.26.72,1,1,0,0,1-1,.72l-.26-.24q-7.15,0-11,.24h-7.67v3.84h20.46a12.14,12.14,0,0,0,4.86-.72v1.67q-1.53,4.32-4.35,5a26,26,0,0,1-4.6-.72,19,19,0,0,0-3.07-.48Q404.26,135.79,395.83,135.79Zm-25.32-16.3V117.1a1,1,0,0,1,.25-1.2,14.2,14.2,0,0,1,4.1-.48H381v-2.16h-6.13a5.15,5.15,0,0,0-1.54.24,2.43,2.43,0,0,1-1.53,0c-.86,0-1.2-.24-1-.72q-.25-.24,0-1a3.72,3.72,0,0,0,.26-1.19l-.26-.48c0-.32.26-.72.77-1.2a10.09,10.09,0,0,1,2.3-.24,5.1,5.1,0,0,1,1.54.24H381v-2.16a12.89,12.89,0,0,1-2.81.24,21.89,21.89,0,0,1-2.56.24,3,3,0,0,1-2,.24c-1.71,0-2.56-.64-2.56-1.92a5.68,5.68,0,0,1,.51-2.16V99.12a21,21,0,0,0-.51-5.51,2.83,2.83,0,0,1-.51-1.68c0-1.12.93-1.75,2.81-1.92a5.5,5.5,0,0,1,2.3.48h4.1a56.76,56.76,0,0,1,5.88-.24h6.9c.17.16.43.16.77,0A1.12,1.12,0,0,1,394,90c.68.33,1.62.8,2.81,1.44v.72a2.25,2.25,0,0,1-.51,1.2,1.8,1.8,0,0,0-.26.72,34.75,34.75,0,0,0-.25,6,19.54,19.54,0,0,0,.25,2.88,13.54,13.54,0,0,1,.26,2.15,2.3,2.3,0,0,1-1.54,2.16h-1a2.79,2.79,0,0,1-2-.24,6.82,6.82,0,0,1-2.56,0,22.27,22.27,0,0,0-2.56-.24V109h7.67c1.19-.16,1.79,0,1.79.48v1.67a7.06,7.06,0,0,1,.26,1.2q-.25,1.2-1,1h-8.7v1.92a10.09,10.09,0,0,1,2.3-.24,11.42,11.42,0,0,1,1.79.24h2.56a5.62,5.62,0,0,0,2.81-.72c0,.64.09,1,.26,1q-1,3.58-2.81,3.59H383a38.07,38.07,0,0,0-6.9,1,12.74,12.74,0,0,1-4.35.48C370.76,120.61,370.34,120.29,370.51,119.49Zm6.65-24.92V97.2H381V94.33a11.62,11.62,0,0,0-2,.24A3.25,3.25,0,0,1,377.16,94.57Zm0,5.75V103H381v-2.64Zm9.46-6V97.2h3.84V94.33Zm3.84,8.63v-2.64h-3.84V103h3.84Zm10.74-.48h1.53a6.7,6.7,0,0,0,3.07.24l-3.07-1.92c-1-.16-1.62-.56-1.79-1.2a8.13,8.13,0,0,1,2.56-3.35c.34,0,1.87,1.11,4.6,3.35a6.87,6.87,0,0,0,1.54.72,9.74,9.74,0,0,1,1.28-1.44c1.19-1.28,2.13-2.31,2.81-3.11a2.5,2.5,0,0,1-1.53,0,7.55,7.55,0,0,0-1.54-.24,51,51,0,0,0-5.88.48h-5.37c-.69,0-1-.24-1-.72l-.26-.24q-.25-3.84,3.07-3.84a2.8,2.8,0,0,1,1.53.24,2.27,2.27,0,0,0,1.79.24h6.14q3.84-.24,5.88-.24a5.15,5.15,0,0,1,1.54-.24,9.09,9.09,0,0,1,3.83,3.12,1.35,1.35,0,0,1-.51,1v.24a1.63,1.63,0,0,1-1,.72c-.68.32-1,.56-1,.71a57.73,57.73,0,0,0-5.63,5.52h4.6a3.28,3.28,0,0,1,1.28-.48q.25,0,1,.72a2.54,2.54,0,0,0,1.79.71.65.65,0,0,0,.26.48q1,.5,1,1a6.62,6.62,0,0,1-1.53,2.4.69.69,0,0,0-.26.48q-1.79,4.08-1.53,5.75a.87.87,0,0,1-1,.24,4.4,4.4,0,0,1-1.28-.24l-.51-.24a.76.76,0,0,0-.52.24q-1.79,0-1.53-.72a18.48,18.48,0,0,1,1.28-6,11.75,11.75,0,0,1-4.09-.24v4.79c.16,2.08.25,3.52.25,4.32q-.25,5.52-7.67,5.51-3.07,0-4.86-4.07l.26-1.2a7.38,7.38,0,0,1,1.53.24,2.53,2.53,0,0,0,1.54,0c2.38,0,3.58-1.36,3.58-4.08v-5.51a39.68,39.68,0,0,0-9.47,1,1,1,0,0,1-.76-1v-2.16c0-1.59.93-2.31,2.81-2.15A8.11,8.11,0,0,0,401.2,102.48Z" transform="translate(-0.25 -0.25)"/><path class="cls-4" d="M460.41,132l-.26-1.68q23-3.6,25.83-33.56a20.1,20.1,0,0,1-.51-5c-.17-.8.26-1.2,1.28-1.2a9.91,9.91,0,0,1,1.28.24,3.39,3.39,0,0,0,2.3-.24,2.22,2.22,0,0,1,2.3,2.4v.48c-.17,1.12-.25,1.76-.25,1.92a20,20,0,0,0-.26,3.59,30.88,30.88,0,0,0-.26,3.36Q501.33,127.89,519,131l-.51,1.67q-1.79,2.64-6.14,2.88-11.51-.48-22.76-22.77-7.15,21.33-23,22.53A7.92,7.92,0,0,1,460.41,132Z" transform="translate(-0.25 -0.25)"/><path class="cls-4" d="M598.13,108.47l-.51-.24q-4.35,0-8.7.24h-5.37a12.2,12.2,0,0,0-1.79,1.44,6.73,6.73,0,0,1-1.53,1.19,21.27,21.27,0,0,1,5.37,5.52q10.23-3.36,13.3-5.52a.71.71,0,0,0,.51-.24,4.26,4.26,0,0,1,2.56-1.43c.68.16,1.44,1,2.3,2.63,0,.16.08.24.25.24a1,1,0,0,0,.26.72c.51.48.77.8.77,1-.35,1-1.28,1.52-2.82,1.68l-7.67,2.63a5.09,5.09,0,0,0,1.79,2.4q6.39,8.15,15.09,9.35l-.77,1.92a7.94,7.94,0,0,1-5.88,2.63q-5.12,0-15.6-14.14l-2,.72a29,29,0,0,1,1,5.51q0,11.74-10.49,11.75c-3.92.15-5.8-1.76-5.62-5.76a15.32,15.32,0,0,0,4.6.72c3.41.16,5.12-1.91,5.12-6.23v-.72a75.07,75.07,0,0,1-14.58,7.67,19.08,19.08,0,0,1-4.09,1H560q-3.07,0-5.89-3.35l-.25-1.44h1a42.52,42.52,0,0,0,24-8.15,10.36,10.36,0,0,1,2-1.44,5.62,5.62,0,0,1-.77-1.44q-12,7.68-19.44,8.39-5.62-.48-6.39-5.75h1.53q10.49,0,21-6.47a10,10,0,0,0-1.53-1.2,20,20,0,0,1-4.6,2.16,23.06,23.06,0,0,1-10.49,1.91c-1.19,0-2.47-.87-3.83-2.63-.35-.32-.52-.56-.52-.72l-.25-1.68h.77q8.43,0,14.06-2.63a15.26,15.26,0,0,0,3.84-2.4,17,17,0,0,0-2.56.24,6.61,6.61,0,0,1-2.56,0,1.09,1.09,0,0,1-.77.24,13.76,13.76,0,0,1-2.55.24c-1,.16-1.54-.24-1.54-1.2q-.25-.24,0-1a3.77,3.77,0,0,0,.26-1.2l-.26-.48a2.6,2.6,0,0,1,1-1.68,16.22,16.22,0,0,1,2.81-.23,8.51,8.51,0,0,1,1.79.23h26.85c1.54,0,2.3.17,2.3.48v2.88a1.8,1.8,0,0,1,.26.72C599.24,108.31,598.81,108.63,598.13,108.47Zm-22.5-14.86h3.06l-.51-2.4a7.39,7.39,0,0,1-.25-1.92c-.17-.79.25-1.19,1.28-1.19a16.58,16.58,0,0,1,2,.24h2.82c1,0,1.53.4,1.53,1.19a.92.92,0,0,1-.26.72c-.17.33-.17.56,0,.72a4.86,4.86,0,0,0-.51,2.64h10q4.85,0,8.69.24l2-.48c1.87.48,3.07,1.2,3.58,2.16a2.42,2.42,0,0,1-1,1.67,15.44,15.44,0,0,0,0,4.32v2.87a20.06,20.06,0,0,1,.25,2.4q0,.72-.51.72a11.72,11.72,0,0,0-2.05.24,4.13,4.13,0,0,1-2,0,.73.73,0,0,0-.51.24c-1,0-1.45-.4-1.28-1.2V98.88H562.33v3.6a18.7,18.7,0,0,0,.25,3.59v1.2q0,.72-.51.72a22.08,22.08,0,0,0-2.56.24H557a1,1,0,0,1-1-.72,99.42,99.42,0,0,0,0-10.07,1.39,1.39,0,0,0-.51-1,.93.93,0,0,1-.51-1.19c.17-1,1.11-1.68,2.81-2.16q1,.24,2.82.48Z" transform="translate(-0.25 -0.25)"/><path class="cls-5" d="M302.45,112.29a11,11,0,0,0,8.3,13.92,11,11,0,0,0-8.3-13.92Z" transform="translate(-0.25 -0.25)"/><text class="cls-6" transform="translate(284.32 172.91)">CUN</text><text class="cls-6" transform="translate(379.74 172.91)">SHU</text><text class="cls-6" transform="translate(475.41 172.91)">REN</text><text class="cls-6" transform="translate(572.74 172.91)">JIA</text></g></g></svg>